<?xml version="1.0" standalone="no"?>
<!DOCTYPE svg PUBLIC "-//W3C//DTD SVG 20010904//EN"
 "http://www.w3.org/TR/2001/REC-SVG-20010904/DTD/svg10.dtd">
<svg version="1.0" xmlns="http://www.w3.org/2000/svg"
 width="800.000000pt" height="800.000000pt" viewBox="0 0 800.000000 800.000000"
 preserveAspectRatio="xMidYMid meet">
<metadata>
Created by potrace 1.11, written by Peter Selinger 2001-2013
</metadata>
<g transform="translate(0.000000,800.000000) scale(0.100000,-0.100000)"
fill="#000000" stroke="none">
<path d="M3792 7985 c-29 -7 -99 -13 -155 -14 -55 -1 -104 -4 -108 -7 -4 -2
-76 -15 -161 -29 -187 -30 -368 -68 -427 -89 -24 -9 -54 -16 -67 -16 -13 0
-24 -3 -24 -8 0 -4 -25 -13 -56 -21 -31 -7 -73 -20 -93 -28 -20 -9 -49 -22
-66 -29 -66 -29 -198 -74 -215 -74 -10 0 -20 -4 -22 -9 -4 -11 -103 -61 -122
-61 -8 0 -21 -6 -29 -14 -19 -19 -133 -76 -152 -76 -8 0 -15 -4 -15 -9 0 -9
-58 -45 -211 -130 -24 -13 -49 -30 -57 -37 -7 -8 -20 -14 -28 -14 -8 0 -14 -4
-14 -10 0 -5 -19 -22 -42 -36 -24 -15 -45 -30 -48 -33 -3 -3 -23 -19 -45 -34
-134 -92 -302 -238 -465 -406 -85 -87 -166 -172 -180 -187 -47 -53 -187 -229
-206 -259 -10 -16 -21 -32 -24 -35 -3 -3 -18 -24 -33 -47 -15 -24 -32 -43 -38
-43 -5 0 -8 -4 -5 -8 3 -5 -3 -18 -13 -29 -11 -11 -30 -39 -43 -62 -85 -154
-120 -211 -129 -211 -5 0 -9 -6 -9 -12 0 -15 -58 -140 -69 -148 -3 -3 -20 -36
-35 -73 -16 -38 -35 -75 -42 -82 -8 -7 -14 -19 -14 -26 0 -17 -57 -177 -75
-212 -8 -16 -15 -34 -15 -40 0 -7 -6 -23 -13 -37 -7 -14 -19 -47 -26 -75 -7
-27 -17 -59 -21 -70 -17 -39 -51 -171 -61 -230 -5 -33 -15 -80 -23 -105 -8
-25 -22 -106 -31 -180 -9 -74 -20 -142 -25 -151 -4 -8 -8 -44 -9 -80 -2 -76
-7 -129 -22 -224 -12 -79 -7 -302 9 -415 7 -41 14 -111 17 -155 6 -111 41
-331 70 -445 13 -52 34 -140 45 -194 12 -55 25 -106 30 -115 4 -9 13 -36 20
-61 6 -25 17 -58 24 -75 36 -80 46 -107 46 -125 0 -10 3 -21 8 -23 4 -3 18
-38 32 -79 14 -40 28 -75 32 -78 4 -3 16 -27 28 -54 35 -82 129 -267 176 -344
24 -41 44 -78 44 -83 0 -5 3 -9 8 -9 4 0 16 -17 27 -37 34 -65 99 -159 165
-240 6 -7 10 -17 10 -22 0 -6 6 -14 13 -18 7 -4 35 -37 62 -72 78 -99 156
-190 208 -244 26 -26 47 -53 47 -58 0 -5 4 -9 9 -9 5 0 44 -35 88 -77 95 -93
181 -170 283 -253 41 -33 82 -66 90 -73 8 -7 22 -16 31 -22 21 -12 156 -107
184 -130 11 -8 38 -25 60 -36 22 -12 42 -25 45 -28 3 -4 41 -26 85 -50 44 -24
82 -46 85 -50 3 -3 25 -15 50 -26 25 -10 61 -29 80 -41 19 -11 37 -21 40 -21
3 0 31 -12 63 -27 32 -14 61 -26 66 -26 5 0 14 -6 20 -13 6 -8 30 -19 53 -26
24 -7 81 -28 128 -46 108 -44 385 -133 431 -139 19 -3 63 -12 99 -21 74 -19
190 -42 253 -49 23 -3 67 -10 97 -16 30 -6 93 -13 140 -16 47 -2 132 -9 189
-14 131 -12 316 -12 401 0 36 5 110 10 165 11 55 1 105 5 110 9 9 6 96 21 135
22 78 3 509 106 615 148 51 19 152 53 175 58 14 2 30 9 36 13 6 5 28 15 50 23
57 20 164 70 285 132 59 30 113 54 122 54 8 0 17 4 19 8 4 10 226 142 239 142
5 0 9 4 9 8 0 4 19 20 43 35 23 15 69 47 102 72 33 25 65 45 72 45 7 0 16 6
20 13 8 12 82 74 153 127 19 14 50 41 71 60 20 19 51 47 68 63 17 15 31 35 31
45 0 11 3 13 8 5 5 -8 33 14 86 67 49 50 75 83 70 91 -4 7 -3 10 3 6 12 -7 86
66 77 76 -4 4 -1 7 6 7 13 0 49 36 92 93 56 74 113 143 125 150 7 4 13 13 13
20 0 7 17 35 38 62 35 47 81 115 164 245 20 30 48 79 63 108 15 28 31 52 36
52 5 0 9 7 9 16 0 9 22 58 49 109 27 51 60 119 74 152 134 322 164 404 151
425 -4 6 -3 8 3 5 19 -12 106 325 142 548 49 301 67 597 52 838 -41 618 -165
1090 -425 1614 -25 51 -46 96 -46 100 0 3 -6 14 -14 22 -17 20 -75 120 -83
144 -3 9 -9 17 -12 17 -4 0 -17 20 -29 44 -12 24 -29 49 -37 56 -8 7 -15 17
-15 22 0 5 -27 45 -60 89 -33 44 -60 84 -60 89 0 5 -6 13 -13 17 -6 4 -25 26
-42 48 -16 22 -34 45 -40 50 -7 6 -27 30 -45 54 -70 91 -320 353 -320 336 -1
-6 -6 -1 -13 11 -12 20 -56 61 -166 154 -30 25 -59 50 -65 55 -6 6 -29 24 -51
40 -22 17 -44 36 -48 42 -4 7 -13 13 -18 13 -6 0 -46 27 -89 60 -43 33 -83 60
-89 60 -5 0 -14 6 -18 14 -4 7 -28 24 -53 36 -25 12 -47 26 -50 30 -3 3 -30
20 -60 35 -30 16 -67 38 -82 48 -16 10 -61 35 -100 54 -40 20 -74 40 -76 45
-2 4 -10 8 -17 8 -18 0 -149 62 -153 72 -2 4 -10 8 -17 8 -17 0 -279 96 -300
111 -5 3 -35 12 -65 20 -30 7 -59 16 -65 19 -5 4 -41 15 -80 24 -386 91 -530
117 -690 123 -60 2 -137 10 -171 18 -76 19 -336 19 -412 0z m483 -1730 c72
-15 171 -42 220 -60 675 -249 1261 -473 1305 -498 86 -48 196 -134 244 -190
111 -131 158 -237 175 -392 5 -49 15 -439 21 -865 5 -426 12 -837 15 -913 4
-155 -8 -256 -50 -391 -81 -267 -221 -453 -455 -608 -201 -132 -714 -432
-1170 -684 -52 -29 -122 -69 -155 -90 -87 -54 -168 -89 -265 -112 -128 -31
-202 -36 -315 -18 -131 19 -226 54 -355 131 -58 34 -172 99 -255 145 -237 132
-376 210 -425 240 -25 15 -65 39 -90 53 -82 45 -245 141 -250 147 -3 3 -43 27
-90 54 -232 133 -390 255 -482 371 -107 135 -193 337 -228 534 -12 68 2 1437
20 1866 8 200 9 214 39 296 86 233 270 395 586 513 66 24 253 94 415 154 162
61 365 136 450 167 85 31 189 70 230 86 86 33 267 76 379 89 133 15 342 5 486
-25z"/>
<path d="M3837 5641 c-103 -42 -157 -104 -157 -183 0 -63 44 -120 124 -162 55
-29 67 -31 160 -31 88 0 108 4 156 26 180 85 185 248 10 335 -75 37 -220 45
-293 15z"/>
<path d="M5918 5455 c2 -19 -4 -52 -16 -78 -18 -41 -37 -56 -238 -190 -181
-119 -304 -196 -634 -397 -113 -69 -387 -220 -500 -277 -232 -115 -416 -159
-630 -150 -233 9 -235 10 -1048 413 -394 196 -720 358 -724 361 -5 2 -8 2 -8
0 0 -3 33 -24 73 -48 39 -23 169 -106 287 -184 193 -127 365 -235 605 -380
471 -285 650 -462 745 -737 51 -148 62 -244 67 -571 4 -246 -13 -1003 -31
-1337 -6 -129 -74 -197 -225 -226 l-45 -9 43 -28 c141 -94 432 -85 605 17 85
51 85 52 8 52 -87 -1 -115 16 -154 94 -53 106 -59 175 -68 780 -9 586 -1 917
24 1062 27 149 106 369 163 451 39 56 162 166 265 237 128 88 224 145 583 348
144 81 310 181 375 226 368 254 463 300 605 294 72 -3 75 -2 75 19 0 70 -76
189 -168 261 l-38 30 4 -33z"/>
<path d="M5649 4717 c-112 -75 -154 -281 -85 -421 32 -64 95 -123 143 -132 71
-13 176 71 203 164 45 152 2 321 -99 389 -46 31 -116 31 -162 0z"/>
<path d="M2120 4694 c-72 -32 -120 -104 -139 -210 -26 -140 54 -315 155 -340
150 -38 273 172 220 375 -37 135 -144 216 -236 175z"/>
<path d="M3305 3991 c-72 -33 -116 -102 -136 -210 -34 -191 91 -377 228 -339
54 15 110 75 134 144 34 95 35 156 5 250 -30 93 -75 144 -143 163 -47 13 -40
14 -88 -8z"/>
<path d="M2684 3661 c-88 -40 -139 -143 -138 -281 0 -72 4 -93 28 -140 35 -71
61 -98 113 -122 76 -34 154 4 205 99 39 71 55 168 38 240 -25 116 -81 191
-158 213 -46 12 -39 13 -88 -9z"/>
<path d="M5087 3654 c-50 -27 -75 -55 -102 -115 -96 -214 34 -492 206 -440 49
15 101 66 130 129 30 64 37 190 15 264 -39 136 -156 212 -249 162z"/>
<path d="M2093 3322 c-29 -9 -90 -66 -107 -101 -83 -163 -12 -414 127 -452 43
-11 96 -2 127 24 140 112 130 406 -17 507 -34 23 -94 33 -130 22z"/>
<path d="M4505 2593 c-82 -44 -128 -143 -128 -275 0 -78 3 -94 32 -152 63
-129 172 -168 265 -95 69 54 111 191 95 306 -12 85 -42 146 -98 194 -38 34
-50 39 -90 39 -25 -1 -59 -8 -76 -17z"/>
<path d="M3225 2523 c-37 -20 -59 -46 -89 -103 -84 -160 -28 -383 108 -435
147 -56 281 145 236 356 -31 147 -156 236 -255 182z"/>
</g>
</svg>
